<?xml version="1.0" standalone="no"?>
<!DOCTYPE svg PUBLIC "-//W3C//DTD SVG 20010904//EN"
 "http://www.w3.org/TR/2001/REC-SVG-20010904/DTD/svg10.dtd">
<svg version="1.0" xmlns="http://www.w3.org/2000/svg"
 width="2000.000000pt" height="2000.000000pt" viewBox="0 0 2000.000000 2000.000000"
 preserveAspectRatio="xMidYMid meet">
<metadata>
Created by potrace 1.14, written by Peter Selinger 2001-2017
</metadata>
<g transform="translate(0.000000,2000.000000) scale(0.100000,-0.100000)"
fill="#000000" stroke="none">
<path d="M4085 18426 c-63 -16 -119 -46 -166 -88 -29 -26 -475 -572 -664 -813
-16 -21 -35 -43 -40 -49 -6 -6 -75 -92 -154 -191 -80 -99 -147 -182 -150 -185
-4 -3 -22 -25 -41 -50 -19 -25 -37 -47 -40 -50 -3 -3 -86 -106 -185 -230 -99
-124 -182 -227 -185 -230 -8 -7 -241 -297 -265 -329 -10 -14 -43 -55 -73 -91
-66 -80 -72 -87 -147 -180 -33 -41 -62 -77 -65 -80 -3 -3 -104 -129 -225 -280
-121 -151 -222 -277 -226 -280 -3 -3 -50 -61 -105 -130 -54 -69 -101 -127
-104 -130 -3 -3 -41 -50 -85 -105 -44 -55 -113 -140 -153 -190 -91 -112 -82
-101 -177 -220 -44 -55 -87 -109 -97 -120 -40 -49 -169 -209 -363 -450 -115
-143 -246 -306 -292 -362 l-83 -101 77 -94 c42 -51 83 -99 90 -106 7 -8 26
-30 41 -50 15 -20 34 -43 42 -52 8 -9 30 -34 48 -57 18 -23 45 -54 58 -70 14
-15 37 -44 52 -63 14 -19 33 -42 42 -51 8 -8 31 -35 50 -59 19 -24 40 -48 45
-54 6 -6 30 -36 55 -66 25 -30 52 -64 62 -75 84 -101 340 -410 368 -444 19
-23 44 -53 55 -65 11 -12 36 -42 55 -66 19 -24 47 -58 61 -75 14 -16 35 -41
46 -55 12 -14 59 -70 104 -125 46 -55 91 -108 99 -119 8 -10 20 -23 25 -30 6
-6 42 -49 80 -96 84 -101 107 -129 120 -144 6 -6 42 -49 80 -96 38 -47 72 -87
75 -90 3 -3 23 -27 45 -55 21 -27 42 -52 45 -55 4 -3 41 -48 84 -100 95 -114
149 -180 196 -235 19 -22 49 -58 65 -79 17 -22 37 -46 45 -55 9 -9 36 -41 60
-71 25 -30 47 -57 50 -60 3 -3 25 -30 50 -60 25 -30 47 -57 50 -60 3 -3 21
-25 40 -50 19 -25 40 -49 46 -55 6 -5 42 -48 80 -95 68 -83 85 -104 121 -146
10 -12 36 -43 58 -70 97 -117 241 -290 250 -300 5 -6 28 -33 50 -60 22 -26 65
-78 95 -115 30 -36 70 -84 88 -107 19 -23 43 -51 54 -64 11 -13 37 -43 57 -68
20 -25 38 -47 41 -50 3 -3 25 -30 50 -60 25 -30 55 -66 66 -80 12 -14 72 -86
134 -160 122 -147 124 -150 190 -230 25 -30 53 -64 64 -75 10 -11 30 -36 44
-55 15 -19 29 -37 32 -40 3 -3 39 -45 80 -95 41 -49 77 -92 80 -95 5 -4 59
-70 110 -133 8 -10 23 -28 34 -40 10 -12 35 -42 55 -67 20 -25 38 -47 41 -50
5 -5 177 -212 210 -253 8 -11 31 -38 51 -61 20 -22 58 -68 84 -101 27 -33 51
-62 54 -65 4 -3 26 -30 51 -60 25 -30 53 -64 62 -75 9 -11 56 -67 104 -125 47
-58 96 -116 108 -130 11 -14 41 -50 66 -80 25 -30 50 -61 57 -68 7 -7 29 -34
50 -60 21 -26 40 -49 43 -52 3 -3 25 -30 50 -60 25 -30 49 -60 55 -66 5 -6
127 -152 270 -325 143 -172 342 -412 443 -534 217 -260 188 -225 337 -405 66
-80 130 -156 142 -170 17 -20 109 -131 311 -375 10 -11 60 -72 112 -135 52
-63 104 -126 116 -140 57 -65 92 -107 111 -132 11 -15 40 -51 65 -80 25 -29
73 -87 107 -128 34 -41 72 -86 84 -100 13 -14 74 -88 137 -165 63 -77 117
-142 120 -145 3 -3 59 -70 125 -150 66 -80 129 -156 141 -170 12 -14 126 -151
254 -305 127 -154 255 -308 283 -341 29 -34 68 -82 88 -105 191 -230 313 -377
327 -394 10 -11 71 -85 137 -165 65 -80 133 -161 149 -180 17 -20 49 -57 71
-84 22 -27 76 -92 120 -145 44 -53 87 -104 95 -115 8 -10 20 -23 25 -30 6 -6
30 -36 54 -66 25 -30 49 -59 55 -65 6 -5 37 -43 70 -82 32 -40 62 -70 67 -67
5 3 6 -2 3 -10 -17 -46 31 3 173 172 87 104 174 208 193 232 19 24 40 48 45
54 6 6 55 65 110 131 55 66 102 122 105 125 3 3 106 127 230 275 124 149 232
279 242 290 9 11 56 67 104 125 48 58 90 107 94 110 3 3 13 14 21 26 8 11 34
44 59 73 25 29 52 62 62 73 9 10 31 37 50 60 18 23 38 46 43 52 6 6 123 146
260 311 138 165 260 311 271 325 12 14 63 75 113 135 51 61 100 119 109 130
18 22 206 248 233 280 27 33 100 118 123 145 11 14 39 48 61 75 22 28 42 52
46 55 4 4 181 215 247 295 23 27 263 315 284 340 9 11 103 124 209 250 105
127 211 253 234 280 23 28 100 120 171 205 71 85 133 160 139 166 5 6 26 31
46 55 125 152 203 245 208 249 3 3 24 28 46 55 21 28 49 61 62 75 12 14 71 84
130 155 59 72 116 139 125 150 9 11 43 52 75 90 31 39 62 75 68 81 5 6 26 30
45 54 19 24 40 48 45 54 6 6 53 63 105 126 52 63 100 121 107 128 7 7 29 34
50 60 21 26 40 49 43 52 3 3 97 115 210 250 112 135 206 247 209 250 3 3 22
25 42 50 20 25 45 55 55 67 11 12 26 30 34 40 8 10 53 63 99 118 45 55 90 109
100 120 23 28 361 434 386 464 11 13 25 29 30 35 6 6 30 36 55 66 25 30 57 68
71 85 24 27 121 144 234 281 43 52 62 75 122 144 21 25 59 70 83 100 67 82 75
91 116 141 22 25 59 69 84 99 39 46 132 157 189 225 38 45 217 261 232 280 18
21 86 102 123 145 11 14 41 50 66 80 24 30 51 62 60 71 8 9 22 25 30 35 14 18
132 159 220 264 21 25 73 88 116 140 43 52 81 97 84 100 3 3 21 25 41 50 20
25 46 55 57 68 11 13 35 41 54 64 18 23 38 46 43 52 6 6 46 54 89 106 43 52
88 106 100 120 12 14 100 120 196 235 96 116 180 215 185 221 6 6 25 29 43 52
19 23 42 50 52 62 10 12 33 39 50 60 17 21 40 48 50 60 10 12 33 39 50 60 17
21 40 48 50 60 10 12 33 39 50 60 17 21 41 49 52 62 11 13 36 43 56 67 21 24
44 51 52 61 8 10 29 35 45 56 17 21 37 45 46 53 9 9 47 54 84 101 38 47 74 90
80 96 5 6 25 29 43 52 19 23 42 50 52 62 10 12 33 40 52 63 18 22 40 48 48 57
8 9 25 28 38 42 l23 26 -147 183 c-81 101 -159 198 -173 215 -14 17 -33 40
-41 50 -364 453 -595 740 -600 744 -3 3 -30 36 -60 75 -67 85 -82 104 -95 119
-6 6 -170 209 -365 451 -195 242 -405 503 -468 580 -62 77 -118 147 -125 155
-7 8 -59 74 -117 145 -57 72 -131 164 -164 205 -33 41 -63 77 -66 80 -3 3 -50
61 -105 130 -55 69 -105 132 -112 140 -7 8 -37 47 -68 85 -31 39 -64 79 -73
90 -10 11 -44 54 -77 95 -33 41 -67 84 -76 95 -10 11 -59 72 -111 136 -51 64
-156 195 -233 290 -77 96 -243 302 -369 459 -126 157 -248 302 -270 323 -23
21 -70 52 -106 70 l-65 32 -5870 2 c-4646 1 -5880 -1 -5920 -11z"/>
</g>
</svg>
